<?xml version="1.0" encoding="UTF-8"?>
<svg width="375" height="812" viewBox="0 0 375 812" xmlns="http://www.w3.org/2000/svg">
  <rect width="375" height="812" fill="#161821"/>
  <!-- Header -->
  <rect x="0" y="0" width="375" height="56" fill="#12141C" />
  <circle cx="324" cy="28" r="16" fill="#232733" />
  <!-- Balance Card -->
  <rect x="16" y="72" width="343" height="220" rx="16" fill="#1A1D26" />
  <rect x="36" y="96" width="200" height="18" rx="6" fill="#F8FAFC"/>
  <rect x="36" y="124" width="120" height="14" rx="6" fill="#9CA3AF"/>
  <!-- Budget Carousel -->
  <rect x="16" y="308" width="260" height="100" rx="12" fill="#232733" />
  <rect x="284" y="308" width="75" height="100" rx="12" fill="#232733" />
  <!-- Insights strip -->
  <rect x="16" y="420" width="343" height="64" rx="12" fill="#1E242A" />
  <!-- Recent activity list items -->
  <rect x="16" y="500" width="343" height="56" rx="12" fill="#232733" />
  <rect x="16" y="568" width="343" height="56" rx="12" fill="#232733" />
  <rect x="16" y="636" width="343" height="56" rx="12" fill="#232733" />
  <!-- FAB -->
  <circle cx="320" cy="720" r="36" fill="#C7FF2E" />
  <!-- Bottom nav -->
  <rect x="0" y="756" width="375" height="56" fill="#12141C" />
</svg>
