<?xml version="1.0" encoding="UTF-8"?>
<svg width="375" height="812" viewBox="0 0 375 812" xmlns="http://www.w3.org/2000/svg">
  <rect width="375" height="812" fill="#161821"/>
  <!-- Header -->
  <rect x="0" y="0" width="375" height="56" fill="#12141C" />
  <text x="20" y="34" fill="#F8FAFC" font-family="Inter, sans-serif" font-size="16" font-weight="600">Home</text>
  <circle cx="324" cy="28" r="16" fill="#232733" />
  <!-- Balance Card -->
  <rect x="16" y="72" width="343" height="220" rx="16" fill="#1A1D26" />
  <text x="36" y="110" fill="#9CA3AF" font-family="Inter, sans-serif" font-size="12">Total balance</text>
  <text x="36" y="142" fill="#F8FAFC" font-family="Inter, sans-serif" font-size="28" font-weight="700">฿ 214,523.12</text>
  <g>
    <rect x="36" y="174" width="140" height="10" rx="6" fill="#2D313E" />
    <rect x="36" y="188" width="120" height="10" rx="6" fill="#C7FF2E" />
  </g>
  <!-- Budget Carousel -->
  <text x="20" y="304" fill="#9CA3AF" font-family="Inter, sans-serif" font-size="12">Budgets</text>
  <rect x="16" y="320" width="260" height="100" rx="12" fill="#232733" />
  <text x="36" y="352" fill="#F8FAFC" font-family="Inter, sans-serif" font-size="14">Dining out</text>
  <rect x="284" y="320" width="75" height="100" rx="12" fill="#232733" />
  <!-- Insights strip -->
  <rect x="16" y="436" width="343" height="64" rx="12" fill="#1E242A" />
  <text x="36" y="468" fill="#F8FAFC" font-family="Inter, sans-serif" font-size="13">AI Insight: You're trending +12% on Fridays</text>
  <!-- Recent activity list items -->
  <text x="20" y="520" fill="#9CA3AF" font-family="Inter, sans-serif" font-size="12">Recent activity</text>
  <rect x="16" y="536" width="343" height="56" rx="12" fill="#232733" />
  <text x="36" y="572" fill="#F8FAFC" font-family="Inter, sans-serif" font-size="14">Starbucks — Coffee</text>
  <text x="304" y="572" fill="#F8FAFC" font-family="Inter, sans-serif" font-size="14" text-anchor="end">฿ 150</text>
  <!-- FAB -->
  <circle cx="320" cy="720" r="36" fill="#C7FF2E" />
  <text x="320" y="726" font-family="Inter, sans-serif" font-size="16" font-weight="700" text-anchor="middle" fill="#000">+</text>
  <!-- Bottom nav -->
  <rect x="0" y="756" width="375" height="56" fill="#12141C" />
  <text x="40" y="792" fill="#9CA3AF" font-family="Inter, sans-serif" font-size="12">Home</text>
  <text x="120" y="792" fill="#9CA3AF" font-family="Inter, sans-serif" font-size="12">Transactions</text>
  <text x="205" y="792" fill="#9CA3AF" font-family="Inter, sans-serif" font-size="12">Insights</text>
  <text x="280" y="792" fill="#9CA3AF" font-family="Inter, sans-serif" font-size="12">AI Coach</text>
  <text x="340" y="792" fill="#9CA3AF" font-family="Inter, sans-serif" font-size="12">Profile</text>
</svg>
