<?xml version="1.0" encoding="UTF-8"?>
<svg width="375" height="812" viewBox="0 0 375 812" xmlns="http://www.w3.org/2000/svg">
  <rect width="375" height="812" fill="#161821"/>
  <!-- Stepper -->
  <rect x="16" y="24" rx="6" width="343" height="8" fill="#2D313E" />
  <rect x="16" y="36" width="80" height="18" rx="6" fill="#C7FF2E" />
  <!-- Hero -->
  <rect x="20" y="72" width="335" height="84" rx="12" fill="#1A1D26" />
  <rect x="36" y="90" width="280" height="12" rx="4" fill="#F8FAFC" opacity="0.95"/>
  <rect x="36" y="110" width="200" height="10" rx="4" fill="#9CA3AF" opacity="0.6"/>
  <!-- Card / Input -->
  <rect x="16" y="180" width="343" height="300" rx="16" fill="#232733" />
  <rect x="36" y="200" width="140" height="16" rx="6" fill="#F8FAFC"/>
  <rect x="36" y="224" width="300" height="44" rx="8" fill="#0F1724"/>
  <!-- Chips -->
  <rect x="36" y="280" width="72" height="32" rx="16" fill="#2D313E"/>
  <rect x="116" y="280" width="72" height="32" rx="16" fill="#2D313E"/>
  <rect x="196" y="280" width="72" height="32" rx="16" fill="#2D313E"/>
  <!-- Footer CTA -->
  <rect x="16" y="736" width="343" height="56" rx="14" fill="#C7FF2E" />
  <rect x="36" y="752" width="280" height="16" rx="8" fill="#000000"/>
</svg>
